<svg xmlns="http://www.w3.org/2000/svg" width="120" height="37"><path fill="#0067b3" d="M77.291 8.88v15.106h-7.379l-6.53-10.34v10.34H58.39V8.88h6.906L72.3 19.19V8.88zm7.033 11.838V18.19h7.105V14.8h-7.105v-2.626h8.084V8.88H79.86v15.106h12.566v-3.268zm20.326-3.457c2.955.072 3.402-3.196 3.402-4.736 0-1.823-1.073-3.645-3.069-3.645H94.88v15.108h4.53l.022-11.864s4.298-.615 4.44 1.199c.257 3.357-3.664 2.301-3.664 2.301v1.745l13.85 17.298h5.215zM28.9 23.988h5.437V8.88H28.9zM55.811 8.88v15.106h-7.378L41.9 13.69v10.296h-4.99V8.88h6.9l7.01 10.35V8.88zM0 .13l6.068 23.857h7.99l.296-13.798 3.553 13.798h8.416V5.235h-4.771v12.972l-4.09-12.972H9.62l-.149 12.828L4.737.13z"/><path fill-opacity=".7" d="M104.682 31.954c-.133.073-.33.11-.588.11h-.885v-.869h1.025c.432 0 .648.134.648.401 0 .165-.066.284-.2.358zm.101 1.847c-.134.096-.33.145-.587.145h-.987v-1.05h.963c.271 0 .474.04.61.118.135.078.202.204.202.38 0 .174-.067.31-.2.407zm.878-3.164c-.306-.197-.765-.296-1.38-.296h-2.293v4.443h2.294c.635 0 1.123-.113 1.465-.34.342-.226.512-.555.512-.987a.883.883 0 00-.278-.662c-.185-.179-.437-.287-.754-.324v-.032c.293-.047.515-.155.666-.323a.882.882 0 00.226-.61c0-.382-.153-.672-.458-.869zm-4.954-.296h-1.221v4.443h1.22zm-.609-.553c.222 0 .388-.052.499-.157.11-.104.166-.25.166-.439 0-.395-.222-.592-.665-.592-.443 0-.664.197-.664.592 0 .398.221.596.664.596zm-5.6.553v.91h1.465v3.533h1.218v-3.533h1.462v-.91zm-.821.991a1.86 1.86 0 00-.757-.797 2.275 2.275 0 00-1.137-.278c-.69 0-1.227.201-1.609.603-.382.402-.572.965-.572 1.69 0 .465.088.872.264 1.221.176.35.428.617.756.803.329.187.708.28 1.137.28.686 0 1.221-.204 1.606-.61.384-.408.576-.972.576-1.694 0-.466-.088-.871-.264-1.218zm-2.615.23c.143-.218.377-.327.7-.327.327 0 .562.11.705.329.144.219.215.548.215.986 0 .44-.07.773-.213.996-.142.223-.375.334-.699.334-.326 0-.562-.112-.706-.336-.145-.225-.217-.556-.217-.994 0-.441.071-.77.215-.988zm-2.47-1.221h-1.665c-.472 1.15-.738 1.798-.796 1.943a4.793 4.793 0 00-.162.48c-.05.173-.118.458-.207.856a5.714 5.714 0 00-.138-.68 6.072 6.072 0 00-.222-.703l-.768-1.896h-1.682v4.443h1.137v-3.501l.076.27c.13.527.254.937.368 1.228l.805 2.003h.869L87 32.797c.114-.286.244-.709.388-1.268l.064-.246v3.501h1.14zm-6.913.991a1.86 1.86 0 00-.757-.797 2.275 2.275 0 00-1.136-.278c-.692 0-1.228.201-1.61.603-.381.402-.572.965-.572 1.69 0 .465.088.872.264 1.221.176.35.428.617.757.803.328.187.707.28 1.137.28.685 0 1.22-.204 1.605-.61.384-.408.576-.972.576-1.694 0-.466-.088-.871-.264-1.218zm-2.615.23c.143-.218.377-.327.7-.327.327 0 .562.11.705.329.144.219.215.548.215.986 0 .44-.07.773-.213.996-.142.223-.375.334-.698.334-.327 0-.563-.112-.707-.336-.145-.225-.217-.556-.217-.994 0-.441.071-.77.215-.988zm-6.176-1.221v.91h1.466v3.533h1.218v-3.533h1.461v-.91zm-2.094 1.613c-.133.073-.33.11-.588.11h-.885v-.869h1.025c.432 0 .648.134.648.401 0 .165-.066.284-.2.358zm.11 1.847c-.135.096-.331.145-.59.145h-.993v-1.05h.969c.272 0 .476.04.612.118.136.078.204.204.204.38 0 .174-.067.31-.202.407zm.869-3.164c-.306-.197-.765-.296-1.38-.296H68.1v4.443h2.294c.635 0 1.123-.113 1.465-.34.342-.226.512-.555.512-.987a.883.883 0 00-.278-.662c-.185-.179-.437-.287-.754-.324v-.032c.293-.047.515-.155.666-.323a.882.882 0 00.226-.61c0-.382-.152-.672-.458-.869zm-7.897 1.73c.414-1.337.665-2.176.752-2.515a6 6 0 00.106.39c.049.164.268.873.658 2.126zm3.583 2.418l-2.073-5.835h-1.518l-2.065 5.835h1.337l.424-1.384h2.134l.424 1.383zm-11.731-3.231c.134.218.202.544.202.98 0 .892-.274 1.338-.82 1.338-.31 0-.537-.103-.68-.309-.142-.205-.214-.546-.214-1.021v-.13c.006-.423.078-.726.217-.91.138-.183.359-.275.66-.275.288 0 .5.11.635.327zm.63 3.036c.258-.183.457-.45.597-.8.14-.349.21-.761.21-1.235 0-.721-.15-1.284-.447-1.69-.299-.405-.711-.608-1.238-.608-.56 0-.982.22-1.266.66h-.056l-.172-.576h-.99v6.399h1.218v-1.8a10.5 10.5 0 00-.064-.644h.064c.298.379.71.568 1.234.568.348 0 .652-.091.91-.274zm-5.292.187c.243-.052.47-.13.684-.236v-.936a3.387 3.387 0 01-1.517.349c-.347 0-.616-.097-.808-.29-.193-.193-.295-.461-.309-.805h2.887v-.587c0-.63-.176-1.122-.529-1.48-.352-.356-.844-.535-1.477-.535-.662 0-1.18.203-1.555.61-.375.405-.563.98-.563 1.722 0 .722.203 1.28.609 1.674.405.394.969.591 1.69.591.349 0 .645-.026.888-.077zm-.436-3.413c.153.163.232.394.238.694h-1.724c.022-.3.106-.53.254-.694.148-.163.352-.244.612-.244s.467.081.62.244zm-7.907-1.023v4.443h1.221v-1.832h1.705v1.832h1.221v-4.443h-1.22v1.709h-1.706v-1.71zm-5.428 0v4.443h1.22v-1.832h1.706v1.832h1.22v-4.443h-1.22v1.709h-1.705v-1.71zm-1.282 0h-1.22v4.443h1.22zm-.608-.553c.221 0 .388-.052.498-.157.111-.104.167-.25.167-.439 0-.395-.222-.592-.665-.592-.443 0-.665.197-.665.592 0 .398.222.596.665.596zm-4.015 2.465c.694 0 1.04.242 1.04.728 0 .27-.08.47-.244.6-.162.13-.415.196-.756.196h-.809v-1.524zm-.769-2.27h.653c.355 0 .614.049.778.145.164.097.246.257.246.48 0 .238-.075.409-.226.512-.15.103-.394.155-.73.155h-.721zm-1.241 4.801h2.19c.662 0 1.185-.148 1.571-.445.386-.296.579-.71.579-1.24 0-.373-.082-.673-.247-.898-.164-.225-.431-.379-.802-.461v-.04a.984.984 0 00.654-.401c.164-.223.246-.508.246-.855 0-.511-.187-.884-.562-1.119-.375-.234-.977-.351-1.808-.351H29.38z"/></svg>